<?xml version="1.0" encoding="UTF-8" standalone="no"?>
<!DOCTYPE svg PUBLIC "-//W3C//DTD SVG 1.1//EN"
 "http://www.w3.org/Graphics/SVG/1.1/DTD/svg11.dtd">
<!-- Generated by graphviz version 2.47.0 (20210316.0004)
 -->
<!-- Title: dependencies Pages: 1 -->
<svg width="1458pt" height="284pt"
 viewBox="0.00 0.00 1458.00 284.00" xmlns="http://www.w3.org/2000/svg" xmlns:xlink="http://www.w3.org/1999/xlink">
<g id="graph0" class="graph" transform="scale(1 1) rotate(0) translate(4 280)">
<title>dependencies</title>
<polygon fill="white" stroke="transparent" points="-4,4 -4,-280 1454,-280 1454,4 -4,4"/>
<text text-anchor="start" x="704.01" y="-42.4" font-family="Times-12" font-weight="bold" font-size="14.00">Legend</text>
<polygon fill="#ffffb3" stroke="transparent" points="491,-10 491,-30 511,-30 511,-10 491,-10"/>
<text text-anchor="start" x="514.63" y="-15.4" font-family="Times-12" font-size="14.00"> &#160;Declarations</text>
<polygon fill="#8dd3c7" stroke="transparent" points="604,-10 604,-30 624,-30 624,-10 604,-10"/>
<text text-anchor="start" x="627.73" y="-15.4" font-family="Times-12" font-size="14.00"> &#160;Module</text>
<polygon fill="#80b1d3" stroke="transparent" points="690,-10 690,-30 710,-30 710,-10 690,-10"/>
<text text-anchor="start" x="713.78" y="-15.4" font-family="Times-12" font-size="14.00"> &#160;Bootstrap</text>
<polygon fill="#fdb462" stroke="transparent" points="787,-10 787,-30 807,-30 807,-10 787,-10"/>
<text text-anchor="start" x="810.67" y="-15.4" font-family="Times-12" font-size="14.00"> &#160;Providers</text>
<polygon fill="#fb8072" stroke="transparent" points="883,-10 883,-30 903,-30 903,-10 883,-10"/>
<text text-anchor="start" x="906.73" y="-15.4" font-family="Times-12" font-size="14.00"> &#160;Exports</text>
<g id="clust1" class="cluster">
<title>cluster_AppModule</title>
<polygon fill="none" stroke="black" stroke-dasharray="1,5" points="8,-70 8,-268 1442,-268 1442,-70 8,-70"/>
</g>
<g id="clust12" class="cluster">
<title>cluster_AppModule_imports</title>
<polygon fill="none" stroke="black" points="1290,-78 1290,-130 1434,-130 1434,-78 1290,-78"/>
</g>
<g id="clust14" class="cluster">
<title>cluster_AppModule_bootstrap</title>
<polygon fill="none" stroke="black" points="660,-208 660,-260 784,-260 784,-208 660,-208"/>
</g>
<g id="clust2" class="cluster">
<title>cluster_AppModule_declarations</title>
<polygon fill="none" stroke="black" points="16,-78 16,-130 1282,-130 1282,-78 16,-78"/>
</g>
<!-- AppComponent -->
<g id="node1" class="node">
<title>AppComponent</title>
<polygon fill="#ffffb3" stroke="black" points="1273.94,-122 1168.06,-122 1168.06,-86 1273.94,-86 1273.94,-122"/>
<text text-anchor="middle" x="1221" y="-99.8" font-family="Times,serif" font-size="14.00">AppComponent</text>
</g>
<!-- AppModule -->
<g id="node10" class="node">
<title>AppModule</title>
<polygon fill="#8dd3c7" stroke="black" points="763.66,-187 760.66,-191 739.66,-191 736.66,-187 680.34,-187 680.34,-151 763.66,-151 763.66,-187"/>
<text text-anchor="middle" x="722" y="-164.8" font-family="Times,serif" font-size="14.00">AppModule</text>
</g>
<!-- AppComponent&#45;&gt;AppModule -->
<g id="edge1" class="edge">
<title>AppComponent&#45;&gt;AppModule</title>
<path fill="none" stroke="black" d="M1221,-122.13C1221,-142.57 1221,-173 1221,-173 1221,-173 773.69,-173 773.69,-173"/>
<polygon fill="black" stroke="black" points="773.69,-169.5 763.69,-173 773.69,-176.5 773.69,-169.5"/>
</g>
<!-- AuthComponent -->
<g id="node2" class="node">
<title>AuthComponent</title>
<polygon fill="#ffffb3" stroke="black" points="1150.83,-122 1041.17,-122 1041.17,-86 1150.83,-86 1150.83,-122"/>
<text text-anchor="middle" x="1096" y="-99.8" font-family="Times,serif" font-size="14.00">AuthComponent</text>
</g>
<!-- AuthComponent&#45;&gt;AppModule -->
<g id="edge2" class="edge">
<title>AuthComponent&#45;&gt;AppModule</title>
<path fill="none" stroke="black" d="M1096,-122.27C1096,-140.56 1096,-166 1096,-166 1096,-166 773.81,-166 773.81,-166"/>
<polygon fill="black" stroke="black" points="773.81,-162.5 763.81,-166 773.81,-169.5 773.81,-162.5"/>
</g>
<!-- GoogleMapsComponent -->
<g id="node3" class="node">
<title>GoogleMapsComponent</title>
<polygon fill="#ffffb3" stroke="black" points="1023.65,-122 870.35,-122 870.35,-86 1023.65,-86 1023.65,-122"/>
<text text-anchor="middle" x="947" y="-99.8" font-family="Times,serif" font-size="14.00">GoogleMapsComponent</text>
</g>
<!-- GoogleMapsComponent&#45;&gt;AppModule -->
<g id="edge3" class="edge">
<title>GoogleMapsComponent&#45;&gt;AppModule</title>
<path fill="none" stroke="black" d="M947,-122.01C947,-138.05 947,-159 947,-159 947,-159 773.79,-159 773.79,-159"/>
<polygon fill="black" stroke="black" points="773.79,-155.5 763.79,-159 773.79,-162.5 773.79,-155.5"/>
</g>
<!-- HeaderComponent -->
<g id="node4" class="node">
<title>HeaderComponent</title>
<polygon fill="#ffffb3" stroke="black" points="851.74,-122 730.26,-122 730.26,-86 851.74,-86 851.74,-122"/>
<text text-anchor="middle" x="791" y="-99.8" font-family="Times,serif" font-size="14.00">HeaderComponent</text>
</g>
<!-- HeaderComponent&#45;&gt;AppModule -->
<g id="edge4" class="edge">
<title>HeaderComponent&#45;&gt;AppModule</title>
<path fill="none" stroke="black" d="M746.98,-122.11C746.98,-122.11 746.98,-140.99 746.98,-140.99"/>
<polygon fill="black" stroke="black" points="743.48,-140.99 746.98,-150.99 750.48,-140.99 743.48,-140.99"/>
</g>
<!-- HomeComponent -->
<g id="node5" class="node">
<title>HomeComponent</title>
<polygon fill="#ffffb3" stroke="black" points="711.55,-122 596.45,-122 596.45,-86 711.55,-86 711.55,-122"/>
<text text-anchor="middle" x="654" y="-99.8" font-family="Times,serif" font-size="14.00">HomeComponent</text>
</g>
<!-- HomeComponent&#45;&gt;AppModule -->
<g id="edge5" class="edge">
<title>HomeComponent&#45;&gt;AppModule</title>
<path fill="none" stroke="black" d="M695.97,-122.11C695.97,-122.11 695.97,-140.99 695.97,-140.99"/>
<polygon fill="black" stroke="black" points="692.47,-140.99 695.97,-150.99 699.47,-140.99 692.47,-140.99"/>
</g>
<!-- LoginComponent -->
<g id="node6" class="node">
<title>LoginComponent</title>
<polygon fill="#ffffb3" stroke="black" points="578.28,-122 463.72,-122 463.72,-86 578.28,-86 578.28,-122"/>
<text text-anchor="middle" x="521" y="-99.8" font-family="Times,serif" font-size="14.00">LoginComponent</text>
</g>
<!-- LoginComponent&#45;&gt;AppModule -->
<g id="edge6" class="edge">
<title>LoginComponent&#45;&gt;AppModule</title>
<path fill="none" stroke="black" d="M521,-122.01C521,-138.05 521,-159 521,-159 521,-159 669.86,-159 669.86,-159"/>
<polygon fill="black" stroke="black" points="669.86,-162.5 679.86,-159 669.86,-155.5 669.86,-162.5"/>
</g>
<!-- NotFoundComponent -->
<g id="node7" class="node">
<title>NotFoundComponent</title>
<polygon fill="#ffffb3" stroke="black" points="446.11,-122 307.89,-122 307.89,-86 446.11,-86 446.11,-122"/>
<text text-anchor="middle" x="377" y="-99.8" font-family="Times,serif" font-size="14.00">NotFoundComponent</text>
</g>
<!-- NotFoundComponent&#45;&gt;AppModule -->
<g id="edge7" class="edge">
<title>NotFoundComponent&#45;&gt;AppModule</title>
<path fill="none" stroke="black" d="M377,-122.27C377,-140.56 377,-166 377,-166 377,-166 670.04,-166 670.04,-166"/>
<polygon fill="black" stroke="black" points="670.04,-169.5 680.04,-166 670.04,-162.5 670.04,-169.5"/>
</g>
<!-- ProfileComponent -->
<g id="node8" class="node">
<title>ProfileComponent</title>
<polygon fill="#ffffb3" stroke="black" points="289.93,-122 170.07,-122 170.07,-86 289.93,-86 289.93,-122"/>
<text text-anchor="middle" x="230" y="-99.8" font-family="Times,serif" font-size="14.00">ProfileComponent</text>
</g>
<!-- ProfileComponent&#45;&gt;AppModule -->
<g id="edge8" class="edge">
<title>ProfileComponent&#45;&gt;AppModule</title>
<path fill="none" stroke="black" d="M230,-122.13C230,-142.57 230,-173 230,-173 230,-173 670.05,-173 670.05,-173"/>
<polygon fill="black" stroke="black" points="670.05,-176.5 680.05,-173 670.05,-169.5 670.05,-176.5"/>
</g>
<!-- RegisterComponent -->
<g id="node9" class="node">
<title>RegisterComponent</title>
<polygon fill="#ffffb3" stroke="black" points="151.98,-122 24.02,-122 24.02,-86 151.98,-86 151.98,-122"/>
<text text-anchor="middle" x="88" y="-99.8" font-family="Times,serif" font-size="14.00">RegisterComponent</text>
</g>
<!-- RegisterComponent&#45;&gt;AppModule -->
<g id="edge9" class="edge">
<title>RegisterComponent&#45;&gt;AppModule</title>
<path fill="none" stroke="black" d="M88,-122.01C88,-144.49 88,-180 88,-180 88,-180 669.91,-180 669.91,-180"/>
<polygon fill="black" stroke="black" points="669.91,-183.5 679.91,-180 669.91,-176.5 669.91,-183.5"/>
</g>
<!-- AppComponent  -->
<g id="node12" class="node">
<title>AppComponent </title>
<polygon fill="#80b1d3" stroke="black" points="776.44,-252 667.56,-252 667.56,-216 776.44,-216 776.44,-252"/>
<text text-anchor="middle" x="722" y="-229.8" font-family="Times,serif" font-size="14.00">AppComponent </text>
</g>
<!-- AppModule&#45;&gt;AppComponent  -->
<g id="edge11" class="edge">
<title>AppModule&#45;&gt;AppComponent </title>
<path fill="none" stroke="black" stroke-dasharray="1,5" d="M722,-187.11C722,-187.11 722,-205.99 722,-205.99"/>
<polygon fill="black" stroke="black" points="718.5,-205.99 722,-215.99 725.5,-205.99 718.5,-205.99"/>
</g>
<!-- AppRoutingModule -->
<g id="node11" class="node">
<title>AppRoutingModule</title>
<polygon fill="#8dd3c7" stroke="black" points="1426.27,-122 1423.27,-126 1402.27,-126 1399.27,-122 1297.73,-122 1297.73,-86 1426.27,-86 1426.27,-122"/>
<text text-anchor="middle" x="1362" y="-99.8" font-family="Times,serif" font-size="14.00">AppRoutingModule</text>
</g>
<!-- AppRoutingModule&#45;&gt;AppModule -->
<g id="edge10" class="edge">
<title>AppRoutingModule&#45;&gt;AppModule</title>
<path fill="none" stroke="black" d="M1362,-122.01C1362,-144.49 1362,-180 1362,-180 1362,-180 773.99,-180 773.99,-180"/>
<polygon fill="black" stroke="black" points="773.99,-176.5 763.99,-180 773.99,-183.5 773.99,-176.5"/>
</g>
</g>
</svg>
